<?xml version="1.0" standalone="no"?>
<svg xmlns="http://www.w3.org/2000/svg" width="512" height="512"><defs><clipPath id="clip-path-dot-color"><rect x="9" y="145" width="17" height="17" transform="rotate(0,17.5,153.5)"/><rect x="9" y="162" width="17" height="17" transform="rotate(0,17.5,170.5)"/><rect x="9" y="230" width="17" height="17" transform="rotate(0,17.5,238.5)"/><rect x="9" y="315" width="17" height="17" transform="rotate(0,17.5,323.5)"/><rect x="9" y="332" width="17" height="17" transform="rotate(0,17.5,340.5)"/><rect x="9" y="349" width="17" height="17" transform="rotate(0,17.5,357.5)"/><rect x="26" y="230" width="17" height="17" transform="rotate(0,34.5,238.5)"/><rect x="43" y="145" width="17" height="17" transform="rotate(0,51.5,153.5)"/><rect x="43" y="196" width="17" height="17" transform="rotate(0,51.5,204.5)"/><rect x="43" y="213" width="17" height="17" transform="rotate(0,51.5,221.5)"/><rect x="43" y="230" width="17" height="17" transform="rotate(0,51.5,238.5)"/><rect x="43" y="247" width="17" height="17" transform="rotate(0,51.5,255.5)"/><rect x="43" y="281" width="17" height="17" transform="rotate(0,51.5,289.5)"/><rect x="43" y="332" width="17" height="17" transform="rotate(0,51.5,340.5)"/><rect x="43" y="349" width="17" height="17" transform="rotate(0,51.5,357.5)"/><rect x="60" y="145" width="17" height="17" transform="rotate(0,68.5,153.5)"/><rect x="60" y="162" width="17" height="17" transform="rotate(0,68.5,170.5)"/><rect x="60" y="196" width="17" height="17" transform="rotate(0,68.5,204.5)"/><rect x="60" y="264" width="17" height="17" transform="rotate(0,68.5,272.5)"/><rect x="60" y="281" width="17" height="17" transform="rotate(0,68.5,289.5)"/><rect x="60" y="298" width="17" height="17" transform="rotate(0,68.5,306.5)"/><rect x="60" y="315" width="17" height="17" transform="rotate(0,68.5,323.5)"/><rect x="60" y="349" width="17" height="17" transform="rotate(0,68.5,357.5)"/><rect x="77" y="145" width="17" height="17" transform="rotate(0,85.5,153.5)"/><rect x="77" y="162" width="17" height="17" transform="rotate(0,85.5,170.5)"/><rect x="77" y="179" width="17" height="17" transform="rotate(0,85.5,187.5)"/><rect x="77" y="196" width="17" height="17" transform="rotate(0,85.5,204.5)"/><rect x="77" y="230" width="17" height="17" transform="rotate(0,85.5,238.5)"/><rect x="77" y="247" width="17" height="17" transform="rotate(0,85.5,255.5)"/><rect x="77" y="264" width="17" height="17" transform="rotate(0,85.5,272.5)"/><rect x="77" y="281" width="17" height="17" transform="rotate(0,85.5,289.5)"/><rect x="77" y="332" width="17" height="17" transform="rotate(0,85.5,340.5)"/><rect x="94" y="162" width="17" height="17" transform="rotate(0,102.5,170.5)"/><rect x="94" y="213" width="17" height="17" transform="rotate(0,102.5,221.5)"/><rect x="94" y="247" width="17" height="17" transform="rotate(0,102.5,255.5)"/><rect x="94" y="298" width="17" height="17" transform="rotate(0,102.5,306.5)"/><rect x="94" y="315" width="17" height="17" transform="rotate(0,102.5,323.5)"/><rect x="94" y="332" width="17" height="17" transform="rotate(0,102.5,340.5)"/><rect x="111" y="145" width="17" height="17" transform="rotate(0,119.5,153.5)"/><rect x="111" y="179" width="17" height="17" transform="rotate(0,119.5,187.5)"/><rect x="111" y="213" width="17" height="17" transform="rotate(0,119.5,221.5)"/><rect x="111" y="247" width="17" height="17" transform="rotate(0,119.5,255.5)"/><rect x="111" y="281" width="17" height="17" transform="rotate(0,119.5,289.5)"/><rect x="111" y="315" width="17" height="17" transform="rotate(0,119.5,323.5)"/><rect x="111" y="349" width="17" height="17" transform="rotate(0,119.5,357.5)"/><rect x="128" y="162" width="17" height="17" transform="rotate(0,136.5,170.5)"/><rect x="128" y="196" width="17" height="17" transform="rotate(0,136.5,204.5)"/><rect x="128" y="230" width="17" height="17" transform="rotate(0,136.5,238.5)"/><rect x="128" y="247" width="17" height="17" transform="rotate(0,136.5,255.5)"/><rect x="128" y="281" width="17" height="17" transform="rotate(0,136.5,289.5)"/><rect x="128" y="298" width="17" height="17" transform="rotate(0,136.5,306.5)"/><rect x="128" y="349" width="17" height="17" transform="rotate(0,136.5,357.5)"/><rect x="145" y="9" width="17" height="17" transform="rotate(0,153.5,17.5)"/><rect x="145" y="26" width="17" height="17" transform="rotate(0,153.5,34.5)"/><rect x="145" y="43" width="17" height="17" transform="rotate(0,153.5,51.5)"/><rect x="145" y="60" width="17" height="17" transform="rotate(0,153.5,68.5)"/><rect x="145" y="111" width="17" height="17" transform="rotate(0,153.5,119.5)"/><rect x="145" y="145" width="17" height="17" transform="rotate(0,153.5,153.5)"/><rect x="145" y="230" width="17" height="17" transform="rotate(0,153.5,238.5)"/><rect x="145" y="247" width="17" height="17" transform="rotate(0,153.5,255.5)"/><rect x="145" y="298" width="17" height="17" transform="rotate(0,153.5,306.5)"/><rect x="145" y="315" width="17" height="17" transform="rotate(0,153.5,323.5)"/><rect x="145" y="366" width="17" height="17" transform="rotate(0,153.5,374.5)"/><rect x="145" y="417" width="17" height="17" transform="rotate(0,153.5,425.5)"/><rect x="145" y="434" width="17" height="17" transform="rotate(0,153.5,442.5)"/><rect x="145" y="451" width="17" height="17" transform="rotate(0,153.5,459.5)"/><rect x="145" y="485" width="17" height="17" transform="rotate(0,153.5,493.5)"/><rect x="162" y="9" width="17" height="17" transform="rotate(0,170.5,17.5)"/><rect x="162" y="43" width="17" height="17" transform="rotate(0,170.5,51.5)"/><rect x="162" y="60" width="17" height="17" transform="rotate(0,170.5,68.5)"/><rect x="162" y="77" width="17" height="17" transform="rotate(0,170.5,85.5)"/><rect x="162" y="94" width="17" height="17" transform="rotate(0,170.5,102.5)"/><rect x="162" y="128" width="17" height="17" transform="rotate(0,170.5,136.5)"/><rect x="162" y="162" width="17" height="17" transform="rotate(0,170.5,170.5)"/><rect x="162" y="281" width="17" height="17" transform="rotate(0,170.5,289.5)"/><rect x="162" y="298" width="17" height="17" transform="rotate(0,170.5,306.5)"/><rect x="162" y="315" width="17" height="17" transform="rotate(0,170.5,323.5)"/><rect x="162" y="332" width="17" height="17" transform="rotate(0,170.5,340.5)"/><rect x="162" y="349" width="17" height="17" transform="rotate(0,170.5,357.5)"/><rect x="162" y="383" width="17" height="17" transform="rotate(0,170.5,391.5)"/><rect x="162" y="400" width="17" height="17" transform="rotate(0,170.5,408.5)"/><rect x="162" y="417" width="17" height="17" transform="rotate(0,170.5,425.5)"/><rect x="162" y="485" width="17" height="17" transform="rotate(0,170.5,493.5)"/><rect x="179" y="43" width="17" height="17" transform="rotate(0,187.5,51.5)"/><rect x="179" y="111" width="17" height="17" transform="rotate(0,187.5,119.5)"/><rect x="179" y="128" width="17" height="17" transform="rotate(0,187.5,136.5)"/><rect x="179" y="145" width="17" height="17" transform="rotate(0,187.5,153.5)"/><rect x="179" y="247" width="17" height="17" transform="rotate(0,187.5,255.5)"/><rect x="179" y="281" width="17" height="17" transform="rotate(0,187.5,289.5)"/><rect x="179" y="298" width="17" height="17" transform="rotate(0,187.5,306.5)"/><rect x="179" y="349" width="17" height="17" transform="rotate(0,187.5,357.5)"/><rect x="179" y="366" width="17" height="17" transform="rotate(0,187.5,374.5)"/><rect x="179" y="451" width="17" height="17" transform="rotate(0,187.5,459.5)"/><rect x="179" y="468" width="17" height="17" transform="rotate(0,187.5,476.5)"/><rect x="196" y="60" width="17" height="17" transform="rotate(0,204.5,68.5)"/><rect x="196" y="128" width="17" height="17" transform="rotate(0,204.5,136.5)"/><rect x="196" y="145" width="17" height="17" transform="rotate(0,204.5,153.5)"/><rect x="196" y="196" width="17" height="17" transform="rotate(0,204.5,204.5)"/><rect x="196" y="213" width="17" height="17" transform="rotate(0,204.5,221.5)"/><rect x="196" y="230" width="17" height="17" transform="rotate(0,204.5,238.5)"/><rect x="196" y="247" width="17" height="17" transform="rotate(0,204.5,255.5)"/><rect x="196" y="315" width="17" height="17" transform="rotate(0,204.5,323.5)"/><rect x="196" y="332" width="17" height="17" transform="rotate(0,204.5,340.5)"/><rect x="196" y="349" width="17" height="17" transform="rotate(0,204.5,357.5)"/><rect x="196" y="383" width="17" height="17" transform="rotate(0,204.5,391.5)"/><rect x="196" y="400" width="17" height="17" transform="rotate(0,204.5,408.5)"/><rect x="196" y="485" width="17" height="17" transform="rotate(0,204.5,493.5)"/><rect x="213" y="77" width="17" height="17" transform="rotate(0,221.5,85.5)"/><rect x="213" y="94" width="17" height="17" transform="rotate(0,221.5,102.5)"/><rect x="213" y="111" width="17" height="17" transform="rotate(0,221.5,119.5)"/><rect x="213" y="145" width="17" height="17" transform="rotate(0,221.5,153.5)"/><rect x="213" y="162" width="17" height="17" transform="rotate(0,221.5,170.5)"/><rect x="213" y="196" width="17" height="17" transform="rotate(0,221.5,204.5)"/><rect x="213" y="264" width="17" height="17" transform="rotate(0,221.5,272.5)"/><rect x="213" y="298" width="17" height="17" transform="rotate(0,221.5,306.5)"/><rect x="213" y="349" width="17" height="17" transform="rotate(0,221.5,357.5)"/><rect x="213" y="434" width="17" height="17" transform="rotate(0,221.5,442.5)"/><rect x="213" y="451" width="17" height="17" transform="rotate(0,221.5,459.5)"/><rect x="230" y="26" width="17" height="17" transform="rotate(0,238.5,34.5)"/><rect x="230" y="145" width="17" height="17" transform="rotate(0,238.5,153.5)"/><rect x="230" y="162" width="17" height="17" transform="rotate(0,238.5,170.5)"/><rect x="230" y="179" width="17" height="17" transform="rotate(0,238.5,187.5)"/><rect x="230" y="196" width="17" height="17" transform="rotate(0,238.5,204.5)"/><rect x="230" y="230" width="17" height="17" transform="rotate(0,238.5,238.5)"/><rect x="230" y="264" width="17" height="17" transform="rotate(0,238.5,272.5)"/><rect x="230" y="281" width="17" height="17" transform="rotate(0,238.5,289.5)"/><rect x="230" y="332" width="17" height="17" transform="rotate(0,238.5,340.5)"/><rect x="230" y="383" width="17" height="17" transform="rotate(0,238.5,391.5)"/><rect x="230" y="451" width="17" height="17" transform="rotate(0,238.5,459.5)"/><rect x="230" y="468" width="17" height="17" transform="rotate(0,238.5,476.5)"/><rect x="230" y="485" width="17" height="17" transform="rotate(0,238.5,493.5)"/><rect x="247" y="9" width="17" height="17" transform="rotate(0,255.5,17.5)"/><rect x="247" y="26" width="17" height="17" transform="rotate(0,255.5,34.5)"/><rect x="247" y="43" width="17" height="17" transform="rotate(0,255.5,51.5)"/><rect x="247" y="111" width="17" height="17" transform="rotate(0,255.5,119.5)"/><rect x="247" y="145" width="17" height="17" transform="rotate(0,255.5,153.5)"/><rect x="247" y="162" width="17" height="17" transform="rotate(0,255.5,170.5)"/><rect x="247" y="213" width="17" height="17" transform="rotate(0,255.5,221.5)"/><rect x="247" y="247" width="17" height="17" transform="rotate(0,255.5,255.5)"/><rect x="247" y="281" width="17" height="17" transform="rotate(0,255.5,289.5)"/><rect x="247" y="298" width="17" height="17" transform="rotate(0,255.5,306.5)"/><rect x="247" y="315" width="17" height="17" transform="rotate(0,255.5,323.5)"/><rect x="247" y="332" width="17" height="17" transform="rotate(0,255.5,340.5)"/><rect x="247" y="349" width="17" height="17" transform="rotate(0,255.5,357.5)"/><rect x="247" y="451" width="17" height="17" transform="rotate(0,255.5,459.5)"/><rect x="247" y="468" width="17" height="17" transform="rotate(0,255.5,476.5)"/><rect x="247" y="485" width="17" height="17" transform="rotate(0,255.5,493.5)"/><rect x="264" y="26" width="17" height="17" transform="rotate(0,272.5,34.5)"/><rect x="264" y="60" width="17" height="17" transform="rotate(0,272.5,68.5)"/><rect x="264" y="77" width="17" height="17" transform="rotate(0,272.5,85.5)"/><rect x="264" y="145" width="17" height="17" transform="rotate(0,272.5,153.5)"/><rect x="264" y="213" width="17" height="17" transform="rotate(0,272.5,221.5)"/><rect x="264" y="230" width="17" height="17" transform="rotate(0,272.5,238.5)"/><rect x="264" y="468" width="17" height="17" transform="rotate(0,272.5,476.5)"/><rect x="281" y="9" width="17" height="17" transform="rotate(0,289.5,17.5)"/><rect x="281" y="43" width="17" height="17" transform="rotate(0,289.5,51.5)"/><rect x="281" y="94" width="17" height="17" transform="rotate(0,289.5,102.5)"/><rect x="281" y="111" width="17" height="17" transform="rotate(0,289.5,119.5)"/><rect x="281" y="128" width="17" height="17" transform="rotate(0,289.5,136.5)"/><rect x="281" y="179" width="17" height="17" transform="rotate(0,289.5,187.5)"/><rect x="281" y="196" width="17" height="17" transform="rotate(0,289.5,204.5)"/><rect x="281" y="281" width="17" height="17" transform="rotate(0,289.5,289.5)"/><rect x="281" y="332" width="17" height="17" transform="rotate(0,289.5,340.5)"/><rect x="281" y="349" width="17" height="17" transform="rotate(0,289.5,357.5)"/><rect x="281" y="366" width="17" height="17" transform="rotate(0,289.5,374.5)"/><rect x="281" y="400" width="17" height="17" transform="rotate(0,289.5,408.5)"/><rect x="281" y="417" width="17" height="17" transform="rotate(0,289.5,425.5)"/><rect x="281" y="434" width="17" height="17" transform="rotate(0,289.5,442.5)"/><rect x="281" y="468" width="17" height="17" transform="rotate(0,289.5,476.5)"/><rect x="298" y="26" width="17" height="17" transform="rotate(0,306.5,34.5)"/><rect x="298" y="43" width="17" height="17" transform="rotate(0,306.5,51.5)"/><rect x="298" y="60" width="17" height="17" transform="rotate(0,306.5,68.5)"/><rect x="298" y="77" width="17" height="17" transform="rotate(0,306.5,85.5)"/><rect x="298" y="128" width="17" height="17" transform="rotate(0,306.5,136.5)"/><rect x="298" y="162" width="17" height="17" transform="rotate(0,306.5,170.5)"/><rect x="298" y="213" width="17" height="17" transform="rotate(0,306.5,221.5)"/><rect x="298" y="230" width="17" height="17" transform="rotate(0,306.5,238.5)"/><rect x="298" y="264" width="17" height="17" transform="rotate(0,306.5,272.5)"/><rect x="298" y="298" width="17" height="17" transform="rotate(0,306.5,306.5)"/><rect x="298" y="349" width="17" height="17" transform="rotate(0,306.5,357.5)"/><rect x="298" y="400" width="17" height="17" transform="rotate(0,306.5,408.5)"/><rect x="298" y="434" width="17" height="17" transform="rotate(0,306.5,442.5)"/><rect x="298" y="451" width="17" height="17" transform="rotate(0,306.5,459.5)"/><rect x="298" y="468" width="17" height="17" transform="rotate(0,306.5,476.5)"/><rect x="315" y="9" width="17" height="17" transform="rotate(0,323.5,17.5)"/><rect x="315" y="43" width="17" height="17" transform="rotate(0,323.5,51.5)"/><rect x="315" y="94" width="17" height="17" transform="rotate(0,323.5,102.5)"/><rect x="315" y="111" width="17" height="17" transform="rotate(0,323.5,119.5)"/><rect x="315" y="128" width="17" height="17" transform="rotate(0,323.5,136.5)"/><rect x="315" y="145" width="17" height="17" transform="rotate(0,323.5,153.5)"/><rect x="315" y="179" width="17" height="17" transform="rotate(0,323.5,187.5)"/><rect x="315" y="196" width="17" height="17" transform="rotate(0,323.5,204.5)"/><rect x="315" y="213" width="17" height="17" transform="rotate(0,323.5,221.5)"/><rect x="315" y="264" width="17" height="17" transform="rotate(0,323.5,272.5)"/><rect x="315" y="281" width="17" height="17" transform="rotate(0,323.5,289.5)"/><rect x="315" y="298" width="17" height="17" transform="rotate(0,323.5,306.5)"/><rect x="315" y="349" width="17" height="17" transform="rotate(0,323.5,357.5)"/><rect x="315" y="383" width="17" height="17" transform="rotate(0,323.5,391.5)"/><rect x="315" y="417" width="17" height="17" transform="rotate(0,323.5,425.5)"/><rect x="315" y="451" width="17" height="17" transform="rotate(0,323.5,459.5)"/><rect x="332" y="60" width="17" height="17" transform="rotate(0,340.5,68.5)"/><rect x="332" y="77" width="17" height="17" transform="rotate(0,340.5,85.5)"/><rect x="332" y="128" width="17" height="17" transform="rotate(0,340.5,136.5)"/><rect x="332" y="145" width="17" height="17" transform="rotate(0,340.5,153.5)"/><rect x="332" y="179" width="17" height="17" transform="rotate(0,340.5,187.5)"/><rect x="332" y="213" width="17" height="17" transform="rotate(0,340.5,221.5)"/><rect x="332" y="281" width="17" height="17" transform="rotate(0,340.5,289.5)"/><rect x="332" y="298" width="17" height="17" transform="rotate(0,340.5,306.5)"/><rect x="332" y="315" width="17" height="17" transform="rotate(0,340.5,323.5)"/><rect x="332" y="332" width="17" height="17" transform="rotate(0,340.5,340.5)"/><rect x="332" y="366" width="17" height="17" transform="rotate(0,340.5,374.5)"/><rect x="332" y="383" width="17" height="17" transform="rotate(0,340.5,391.5)"/><rect x="332" y="451" width="17" height="17" transform="rotate(0,340.5,459.5)"/><rect x="349" y="26" width="17" height="17" transform="rotate(0,357.5,34.5)"/><rect x="349" y="60" width="17" height="17" transform="rotate(0,357.5,68.5)"/><rect x="349" y="77" width="17" height="17" transform="rotate(0,357.5,85.5)"/><rect x="349" y="111" width="17" height="17" transform="rotate(0,357.5,119.5)"/><rect x="349" y="145" width="17" height="17" transform="rotate(0,357.5,153.5)"/><rect x="349" y="196" width="17" height="17" transform="rotate(0,357.5,204.5)"/><rect x="349" y="213" width="17" height="17" transform="rotate(0,357.5,221.5)"/><rect x="349" y="230" width="17" height="17" transform="rotate(0,357.5,238.5)"/><rect x="349" y="298" width="17" height="17" transform="rotate(0,357.5,306.5)"/><rect x="349" y="315" width="17" height="17" transform="rotate(0,357.5,323.5)"/><rect x="349" y="332" width="17" height="17" transform="rotate(0,357.5,340.5)"/><rect x="349" y="349" width="17" height="17" transform="rotate(0,357.5,357.5)"/><rect x="349" y="366" width="17" height="17" transform="rotate(0,357.5,374.5)"/><rect x="349" y="383" width="17" height="17" transform="rotate(0,357.5,391.5)"/><rect x="349" y="400" width="17" height="17" transform="rotate(0,357.5,408.5)"/><rect x="349" y="417" width="17" height="17" transform="rotate(0,357.5,425.5)"/><rect x="349" y="434" width="17" height="17" transform="rotate(0,357.5,442.5)"/><rect x="349" y="451" width="17" height="17" transform="rotate(0,357.5,459.5)"/><rect x="366" y="145" width="17" height="17" transform="rotate(0,374.5,153.5)"/><rect x="366" y="213" width="17" height="17" transform="rotate(0,374.5,221.5)"/><rect x="366" y="230" width="17" height="17" transform="rotate(0,374.5,238.5)"/><rect x="366" y="247" width="17" height="17" transform="rotate(0,374.5,255.5)"/><rect x="366" y="281" width="17" height="17" transform="rotate(0,374.5,289.5)"/><rect x="366" y="298" width="17" height="17" transform="rotate(0,374.5,306.5)"/><rect x="366" y="315" width="17" height="17" transform="rotate(0,374.5,323.5)"/><rect x="366" y="349" width="17" height="17" transform="rotate(0,374.5,357.5)"/><rect x="366" y="417" width="17" height="17" transform="rotate(0,374.5,425.5)"/><rect x="366" y="434" width="17" height="17" transform="rotate(0,374.5,442.5)"/><rect x="366" y="451" width="17" height="17" transform="rotate(0,374.5,459.5)"/><rect x="366" y="468" width="17" height="17" transform="rotate(0,374.5,476.5)"/><rect x="366" y="485" width="17" height="17" transform="rotate(0,374.5,493.5)"/><rect x="383" y="179" width="17" height="17" transform="rotate(0,391.5,187.5)"/><rect x="383" y="196" width="17" height="17" transform="rotate(0,391.5,204.5)"/><rect x="383" y="213" width="17" height="17" transform="rotate(0,391.5,221.5)"/><rect x="383" y="230" width="17" height="17" transform="rotate(0,391.5,238.5)"/><rect x="383" y="281" width="17" height="17" transform="rotate(0,391.5,289.5)"/><rect x="383" y="298" width="17" height="17" transform="rotate(0,391.5,306.5)"/><rect x="383" y="315" width="17" height="17" transform="rotate(0,391.5,323.5)"/><rect x="383" y="332" width="17" height="17" transform="rotate(0,391.5,340.5)"/><rect x="383" y="349" width="17" height="17" transform="rotate(0,391.5,357.5)"/><rect x="383" y="383" width="17" height="17" transform="rotate(0,391.5,391.5)"/><rect x="383" y="417" width="17" height="17" transform="rotate(0,391.5,425.5)"/><rect x="383" y="434" width="17" height="17" transform="rotate(0,391.5,442.5)"/><rect x="383" y="468" width="17" height="17" transform="rotate(0,391.5,476.5)"/><rect x="400" y="162" width="17" height="17" transform="rotate(0,408.5,170.5)"/><rect x="400" y="264" width="17" height="17" transform="rotate(0,408.5,272.5)"/><rect x="400" y="281" width="17" height="17" transform="rotate(0,408.5,289.5)"/><rect x="400" y="315" width="17" height="17" transform="rotate(0,408.5,323.5)"/><rect x="400" y="349" width="17" height="17" transform="rotate(0,408.5,357.5)"/><rect x="400" y="417" width="17" height="17" transform="rotate(0,408.5,425.5)"/><rect x="400" y="434" width="17" height="17" transform="rotate(0,408.5,442.5)"/><rect x="400" y="468" width="17" height="17" transform="rotate(0,408.5,476.5)"/><rect x="400" y="485" width="17" height="17" transform="rotate(0,408.5,493.5)"/><rect x="417" y="213" width="17" height="17" transform="rotate(0,425.5,221.5)"/><rect x="417" y="247" width="17" height="17" transform="rotate(0,425.5,255.5)"/><rect x="417" y="264" width="17" height="17" transform="rotate(0,425.5,272.5)"/><rect x="417" y="281" width="17" height="17" transform="rotate(0,425.5,289.5)"/><rect x="417" y="298" width="17" height="17" transform="rotate(0,425.5,306.5)"/><rect x="417" y="349" width="17" height="17" transform="rotate(0,425.5,357.5)"/><rect x="417" y="366" width="17" height="17" transform="rotate(0,425.5,374.5)"/><rect x="417" y="383" width="17" height="17" transform="rotate(0,425.5,391.5)"/><rect x="417" y="400" width="17" height="17" transform="rotate(0,425.5,408.5)"/><rect x="417" y="417" width="17" height="17" transform="rotate(0,425.5,425.5)"/><rect x="417" y="451" width="17" height="17" transform="rotate(0,425.5,459.5)"/><rect x="434" y="145" width="17" height="17" transform="rotate(0,442.5,153.5)"/><rect x="434" y="162" width="17" height="17" transform="rotate(0,442.5,170.5)"/><rect x="434" y="196" width="17" height="17" transform="rotate(0,442.5,204.5)"/><rect x="434" y="213" width="17" height="17" transform="rotate(0,442.5,221.5)"/><rect x="434" y="247" width="17" height="17" transform="rotate(0,442.5,255.5)"/><rect x="434" y="264" width="17" height="17" transform="rotate(0,442.5,272.5)"/><rect x="434" y="281" width="17" height="17" transform="rotate(0,442.5,289.5)"/><rect x="434" y="298" width="17" height="17" transform="rotate(0,442.5,306.5)"/><rect x="434" y="366" width="17" height="17" transform="rotate(0,442.5,374.5)"/><rect x="434" y="417" width="17" height="17" transform="rotate(0,442.5,425.5)"/><rect x="434" y="434" width="17" height="17" transform="rotate(0,442.5,442.5)"/><rect x="434" y="485" width="17" height="17" transform="rotate(0,442.5,493.5)"/><rect x="451" y="145" width="17" height="17" transform="rotate(0,459.5,153.5)"/><rect x="451" y="196" width="17" height="17" transform="rotate(0,459.5,204.5)"/><rect x="451" y="230" width="17" height="17" transform="rotate(0,459.5,238.5)"/><rect x="451" y="315" width="17" height="17" transform="rotate(0,459.5,323.5)"/><rect x="451" y="349" width="17" height="17" transform="rotate(0,459.5,357.5)"/><rect x="451" y="366" width="17" height="17" transform="rotate(0,459.5,374.5)"/><rect x="451" y="400" width="17" height="17" transform="rotate(0,459.5,408.5)"/><rect x="451" y="451" width="17" height="17" transform="rotate(0,459.5,459.5)"/><rect x="451" y="485" width="17" height="17" transform="rotate(0,459.5,493.5)"/><rect x="468" y="145" width="17" height="17" transform="rotate(0,476.5,153.5)"/><rect x="468" y="179" width="17" height="17" transform="rotate(0,476.5,187.5)"/><rect x="468" y="196" width="17" height="17" transform="rotate(0,476.5,204.5)"/><rect x="468" y="247" width="17" height="17" transform="rotate(0,476.5,255.5)"/><rect x="468" y="264" width="17" height="17" transform="rotate(0,476.5,272.5)"/><rect x="468" y="349" width="17" height="17" transform="rotate(0,476.5,357.5)"/><rect x="468" y="417" width="17" height="17" transform="rotate(0,476.5,425.5)"/><rect x="468" y="434" width="17" height="17" transform="rotate(0,476.5,442.5)"/><rect x="468" y="468" width="17" height="17" transform="rotate(0,476.5,476.5)"/><rect x="485" y="145" width="17" height="17" transform="rotate(0,493.5,153.5)"/><rect x="485" y="213" width="17" height="17" transform="rotate(0,493.5,221.5)"/><rect x="485" y="247" width="17" height="17" transform="rotate(0,493.5,255.5)"/><rect x="485" y="315" width="17" height="17" transform="rotate(0,493.5,323.5)"/><rect x="485" y="349" width="17" height="17" transform="rotate(0,493.5,357.5)"/><rect x="485" y="400" width="17" height="17" transform="rotate(0,493.5,408.5)"/><rect x="485" y="417" width="17" height="17" transform="rotate(0,493.5,425.5)"/><rect x="485" y="468" width="17" height="17" transform="rotate(0,493.5,476.5)"/></clipPath><clipPath id="clip-path-corners-square-color-0-0"><path clip-rule="evenodd" d="M 9 9v 119h 119v -119zM 26 26h 85v 85h -85z" transform="rotate(0,68.5,68.5)"/></clipPath><clipPath id="clip-path-corners-dot-color-0-0"><rect x="43" y="43" width="51" height="51" transform="rotate(0,68.5,68.5)"/></clipPath><clipPath id="clip-path-corners-square-color-1-0"><path clip-rule="evenodd" d="M 383 9v 119h 119v -119zM 400 26h 85v 85h -85z" transform="rotate(90,442.5,68.5)"/></clipPath><clipPath id="clip-path-corners-dot-color-1-0"><rect x="417" y="43" width="51" height="51" transform="rotate(90,442.5,68.5)"/></clipPath><clipPath id="clip-path-corners-square-color-0-1"><path clip-rule="evenodd" d="M 9 383v 119h 119v -119zM 26 400h 85v 85h -85z" transform="rotate(-90,68.5,442.5)"/></clipPath><clipPath id="clip-path-corners-dot-color-0-1"><rect x="43" y="417" width="51" height="51" transform="rotate(-90,68.5,442.5)"/></clipPath></defs><rect x="0" y="0" height="512" width="512" clip-path="url('#clip-path-background-color')" fill="transparent"/><rect x="0" y="0" height="512" width="512" clip-path="url('#clip-path-dot-color')" fill="#000000"/><rect x="9" y="9" height="119" width="119" clip-path="url('#clip-path-corners-square-color-0-0')" fill="#000000"/><rect x="43" y="43" height="51" width="51" clip-path="url('#clip-path-corners-dot-color-0-0')" fill="#000000"/><rect x="383" y="9" height="119" width="119" clip-path="url('#clip-path-corners-square-color-1-0')" fill="#000000"/><rect x="417" y="43" height="51" width="51" clip-path="url('#clip-path-corners-dot-color-1-0')" fill="#000000"/><rect x="9" y="383" height="119" width="119" clip-path="url('#clip-path-corners-square-color-0-1')" fill="#000000"/><rect x="43" y="417" height="51" width="51" clip-path="url('#clip-path-corners-dot-color-0-1')" fill="#000000"/></svg>